<svg width="600" height="437" viewBox="0 0 600 437" fill="none" xmlns="http://www.w3.org/2000/svg">
<g filter="url(#filter0_d_504_22)">
<rect x="72" y="65" width="496" height="333" rx="25" fill="url(#paint0_linear_504_22)" fill-opacity="0.9" shape-rendering="crispEdges"/>
</g>
<ellipse cx="315.5" cy="96" rx="22.5" ry="22" fill="#D8D8D9"/>
<rect x="270" y="130" width="88" height="22" fill="#7D8B8F"/>
<rect x="173" y="130" width="88" height="22" fill="#7D8B8F"/>
<rect x="419" y="130" width="48" height="22" fill="#7D8B8F"/>
<rect x="367" y="130" width="43" height="22" fill="#7D8B8F"/>
<rect x="119" y="251" width="88" height="22" fill="#7D8B8F"/>
<rect x="488" y="322" width="88" height="22" transform="rotate(-90 488 322)" fill="#7D8B8F"/>
<path d="M225 248.5H302V270.5H225V248.5Z" fill="white"/>
<path d="M168 311H245V333H168V311Z" fill="white"/>
<path d="M119 214H162V236H119V214Z" fill="#7D8B8F"/>
<path d="M189 214H232V236H189V214Z" fill="#7D8B8F"/>
<path d="M264 214H307V236H264V214Z" fill="#7D8B8F"/>
<defs>
<filter id="filter0_d_504_22" x="0" y="0" width="600" height="437" filterUnits="userSpaceOnUse" color-interpolation-filters="sRGB">
<feFlood flood-opacity="0" result="BackgroundImageFix"/>
<feColorMatrix in="SourceAlpha" type="matrix" values="0 0 0 0 0 0 0 0 0 0 0 0 0 0 0 0 0 0 127 0" result="hardAlpha"/>
<feOffset dx="-20" dy="-13"/>
<feGaussianBlur stdDeviation="26"/>
<feComposite in2="hardAlpha" operator="out"/>
<feColorMatrix type="matrix" values="0 0 0 0 0 0 0 0 0 0 0 0 0 0 0 0 0 0 0.4 0"/>
<feBlend mode="normal" in2="BackgroundImageFix" result="effect1_dropShadow_504_22"/>
<feBlend mode="normal" in="SourceGraphic" in2="effect1_dropShadow_504_22" result="shape"/>
</filter>
<linearGradient id="paint0_linear_504_22" x1="218" y1="117.5" x2="474" y2="268.5" gradientUnits="userSpaceOnUse">
<stop stop-color="#253949"/>
<stop offset="1" stop-color="#274945"/>
</linearGradient>
</defs>
</svg>
