<svg width="600" height="437" viewBox="0 0 600 437" fill="none" xmlns="http://www.w3.org/2000/svg">
<g filter="url(#filter0_d_81_35)">
<rect x="72" y="65" width="496" height="333" rx="25" fill="url(#paint0_linear_81_35)" fill-opacity="0.9" shape-rendering="crispEdges"/>
</g>
<ellipse cx="310.5" cy="109" rx="22.5" ry="22" fill="white"/>
<rect x="342" y="109" width="88" height="22" fill="#7D8B8F"/>
<rect x="264" y="274" width="111" height="39" fill="#3C9D3C" fill-opacity="0.5"/>
<rect x="191" y="173" width="88" height="22" fill="#7D8B8F"/>
<rect x="226" y="210" width="77" height="22" fill="#7D8B8F"/>
<rect x="439" y="109" width="43" height="22" fill="#7D8B8F"/>
<rect width="88" height="22" transform="matrix(-1 0 0 1 279 109)" fill="#7D8B8F"/>
<rect width="43" height="22" transform="matrix(-1 0 0 1 182 109)" fill="#7D8B8F"/>
<rect x="310" y="173" width="43" height="22" fill="#3C9D3C"/>
<rect x="353" y="210" width="43" height="22" fill="#7D8B8F"/>
<defs>
<filter id="filter0_d_81_35" x="0" y="0" width="600" height="437" filterUnits="userSpaceOnUse" color-interpolation-filters="sRGB">
<feFlood flood-opacity="0" result="BackgroundImageFix"/>
<feColorMatrix in="SourceAlpha" type="matrix" values="0 0 0 0 0 0 0 0 0 0 0 0 0 0 0 0 0 0 127 0" result="hardAlpha"/>
<feOffset dx="-20" dy="-13"/>
<feGaussianBlur stdDeviation="26"/>
<feComposite in2="hardAlpha" operator="out"/>
<feColorMatrix type="matrix" values="0 0 0 0 0 0 0 0 0 0 0 0 0 0 0 0 0 0 0.4 0"/>
<feBlend mode="normal" in2="BackgroundImageFix" result="effect1_dropShadow_81_35"/>
<feBlend mode="normal" in="SourceGraphic" in2="effect1_dropShadow_81_35" result="shape"/>
</filter>
<linearGradient id="paint0_linear_81_35" x1="218" y1="117.5" x2="474" y2="268.5" gradientUnits="userSpaceOnUse">
<stop stop-color="#253949"/>
<stop offset="1" stop-color="#274945"/>
</linearGradient>
</defs>
</svg>
