<svg width="600" height="437" viewBox="0 0 600 437" fill="none" xmlns="http://www.w3.org/2000/svg">
<g filter="url(#filter0_d_502_2)">
<rect x="72" y="65" width="496" height="333" rx="25" fill="url(#paint0_linear_502_2)" fill-opacity="0.9" shape-rendering="crispEdges"/>
</g>
<ellipse cx="124.5" cy="122" rx="22.5" ry="22" fill="#D8D8D9"/>
<rect x="270" y="111" width="88" height="22" fill="#7D8B8F"/>
<rect x="173" y="111" width="88" height="22" fill="#0A0A3F"/>
<rect x="419" y="111" width="48" height="22" fill="#0A0A3F"/>
<rect x="367" y="111" width="43" height="22" fill="#7D8B8F"/>
<rect x="167" y="252" width="88" height="22" fill="#7D8B8F"/>
<path d="M273 249.5H350V271.5H273V249.5Z" fill="#0A0A3F"/>
<path d="M216 312H293V334H216V312Z" fill="#0A0A3F"/>
<path d="M167 215H210V237H167V215Z" fill="#7D8B8F"/>
<path d="M237 215H280V237H237V215Z" fill="#7D8B8F"/>
<path d="M312 215H355V237H312V215Z" fill="#7D8B8F"/>
<defs>
<filter id="filter0_d_502_2" x="0" y="0" width="600" height="437" filterUnits="userSpaceOnUse" color-interpolation-filters="sRGB">
<feFlood flood-opacity="0" result="BackgroundImageFix"/>
<feColorMatrix in="SourceAlpha" type="matrix" values="0 0 0 0 0 0 0 0 0 0 0 0 0 0 0 0 0 0 127 0" result="hardAlpha"/>
<feOffset dx="-20" dy="-13"/>
<feGaussianBlur stdDeviation="26"/>
<feComposite in2="hardAlpha" operator="out"/>
<feColorMatrix type="matrix" values="0 0 0 0 0 0 0 0 0 0 0 0 0 0 0 0 0 0 0.4 0"/>
<feBlend mode="normal" in2="BackgroundImageFix" result="effect1_dropShadow_502_2"/>
<feBlend mode="normal" in="SourceGraphic" in2="effect1_dropShadow_502_2" result="shape"/>
</filter>
<linearGradient id="paint0_linear_502_2" x1="218" y1="117.5" x2="474" y2="268.5" gradientUnits="userSpaceOnUse">
<stop stop-color="#253949"/>
<stop offset="1" stop-color="#274945"/>
</linearGradient>
</defs>
</svg>
