<svg width="600" height="437" viewBox="0 0 600 437" fill="none" xmlns="http://www.w3.org/2000/svg">
<g filter="url(#filter0_d_504_40)">
<rect x="72" y="65" width="496" height="333" rx="25" fill="url(#paint0_linear_504_40)" fill-opacity="0.9" shape-rendering="crispEdges"/>
</g>
<path d="M141 108C141 120.15 130.926 130 118.5 130C106.074 130 96 120.15 96 108C96 95.8497 106.074 86 118.5 86C130.926 86 141 95.8497 141 108Z" fill="#EC6483"/>
<path d="M438 245.5C438 305.423 385.841 354 321.5 354C257.159 354 205 305.423 205 245.5C205 185.577 257.159 137 321.5 137C385.841 137 438 185.577 438 245.5Z" fill="#D12B30"/>
<rect x="260" y="97" width="88" height="22" fill="#7D8B8F"/>
<rect x="163" y="97" width="88" height="22" fill="#7D8B8F"/>
<rect x="409" y="97" width="48" height="22" fill="#7D8B8F"/>
<rect x="357" y="97" width="43" height="22" fill="#7D8B8F"/>
<rect x="499" y="97" width="43" height="22" fill="#EC6483"/>
<rect x="234" y="243" width="88" height="22" fill="white"/>
<path d="M340 240.5H417V262.5H340V240.5Z" fill="white"/>
<path d="M283 303H360V325H283V303Z" fill="white"/>
<path d="M234 206H277V228H234V206Z" fill="white"/>
<path d="M304 206H347V228H304V206Z" fill="white"/>
<path d="M379 206H422V228H379V206Z" fill="white"/>
<defs>
<filter id="filter0_d_504_40" x="0" y="0" width="600" height="437" filterUnits="userSpaceOnUse" color-interpolation-filters="sRGB">
<feFlood flood-opacity="0" result="BackgroundImageFix"/>
<feColorMatrix in="SourceAlpha" type="matrix" values="0 0 0 0 0 0 0 0 0 0 0 0 0 0 0 0 0 0 127 0" result="hardAlpha"/>
<feOffset dx="-20" dy="-13"/>
<feGaussianBlur stdDeviation="26"/>
<feComposite in2="hardAlpha" operator="out"/>
<feColorMatrix type="matrix" values="0 0 0 0 0 0 0 0 0 0 0 0 0 0 0 0 0 0 0.4 0"/>
<feBlend mode="normal" in2="BackgroundImageFix" result="effect1_dropShadow_504_40"/>
<feBlend mode="normal" in="SourceGraphic" in2="effect1_dropShadow_504_40" result="shape"/>
</filter>
<linearGradient id="paint0_linear_504_40" x1="218" y1="117.5" x2="474" y2="268.5" gradientUnits="userSpaceOnUse">
<stop stop-color="#253949"/>
<stop offset="1" stop-color="#274945"/>
</linearGradient>
</defs>
</svg>
