<svg width="600" height="437" viewBox="0 0 600 437" fill="none" xmlns="http://www.w3.org/2000/svg">
<g filter="url(#filter0_d_81_54)">
<rect x="72" y="65" width="496" height="333" rx="25" fill="url(#paint0_linear_81_54)" fill-opacity="0.9" shape-rendering="crispEdges"/>
</g>
<ellipse cx="124.5" cy="122" rx="22.5" ry="22" fill="#D8D8D9"/>
<rect x="342" y="109" width="88" height="22" fill="#7D8B8F"/>
<rect x="245" y="109" width="88" height="22" fill="#379CCF"/>
<rect x="232" y="221" width="88" height="22" fill="#7D8B8F"/>
<rect x="105" y="325" width="88" height="22" transform="rotate(-90 105 325)" fill="#7D8B8F"/>
<path d="M338 218.5H415V240.5H338V218.5Z" fill="#45B7F0"/>
<path d="M281 281H358V303H281V281Z" fill="#379CCF"/>
<rect x="491" y="109" width="48" height="22" fill="#379CCF"/>
<rect x="439" y="109" width="43" height="22" fill="#7D8B8F"/>
<path d="M232 184H275V206H232V184Z" fill="#7D8B8F"/>
<path d="M302 184H345V206H302V184Z" fill="#7D8B8F"/>
<path d="M377 184H420V206H377V184Z" fill="#7D8B8F"/>
<defs>
<filter id="filter0_d_81_54" x="0" y="0" width="600" height="437" filterUnits="userSpaceOnUse" color-interpolation-filters="sRGB">
<feFlood flood-opacity="0" result="BackgroundImageFix"/>
<feColorMatrix in="SourceAlpha" type="matrix" values="0 0 0 0 0 0 0 0 0 0 0 0 0 0 0 0 0 0 127 0" result="hardAlpha"/>
<feOffset dx="-20" dy="-13"/>
<feGaussianBlur stdDeviation="26"/>
<feComposite in2="hardAlpha" operator="out"/>
<feColorMatrix type="matrix" values="0 0 0 0 0 0 0 0 0 0 0 0 0 0 0 0 0 0 0.4 0"/>
<feBlend mode="normal" in2="BackgroundImageFix" result="effect1_dropShadow_81_54"/>
<feBlend mode="normal" in="SourceGraphic" in2="effect1_dropShadow_81_54" result="shape"/>
</filter>
<linearGradient id="paint0_linear_81_54" x1="218" y1="117.5" x2="474" y2="268.5" gradientUnits="userSpaceOnUse">
<stop stop-color="#253949"/>
<stop offset="1" stop-color="#274945"/>
</linearGradient>
</defs>
</svg>
